<?xml version="1.0" encoding="utf-8"?>
<!-- Generator: Adobe Illustrator 23.0.2, SVG Export Plug-In . SVG Version: 6.00 Build 0)  -->
<svg version="1.1" id="Layer_1" xmlns="http://www.w3.org/2000/svg" xmlns:xlink="http://www.w3.org/1999/xlink" x="0px" y="0px"
	 viewBox="0 0 542 174" style="enable-background:new 0 0 542 174;" xml:space="preserve">
<g>
	<path style="fill-rule:evenodd;clip-rule:evenodd;" d="M512.7,79.2c-2.2-5.6-5.2-9.7-8.9-12.5c-3.8-2.7-7.6-4.7-11.6-5.8
		c-3.9-1.1-8.2-1.7-12.9-1.7h-0.1c-4.7,0-9,0.6-12.9,1.7c-3.9,1.1-7.7,3.1-11.5,5.8c-3.8,2.8-6.8,6.9-8.9,12.5
		c-2.2,5.6-3.3,12.3-3.3,20.3c0,7.9,1.1,14.7,3.3,20.3c2.2,5.6,5.2,9.7,8.9,12.5c3.8,2.7,7.6,4.7,11.5,5.8c3.9,1.1,8.2,1.7,12.9,1.7
		h0.1c4.7,0,9-0.6,12.9-1.7c4-1.1,7.8-3.1,11.6-5.8c3.8-2.8,6.8-6.9,8.9-12.5c2.2-5.6,3.3-12.3,3.3-20.3
		C516,91.5,514.9,84.7,512.7,79.2z M498.6,122.4c-4,4.7-10.5,7.1-19.3,7.1h0c-8.9,0-15.3-2.4-19.3-7.2c-4-4.8-6-12.4-6-22.8
		c0-10.4,2-18,6-22.8c4-4.8,10.5-7.2,19.3-7.2h0c8.8,0,15.3,2.4,19.3,7.1c4,4.7,6.1,12.4,6.1,22.9S502.6,117.6,498.6,122.4z"/>
	<rect x="409.1" y="60.5" style="fill-rule:evenodd;clip-rule:evenodd;" width="11.3" height="78"/>
	<rect x="408.5" y="34.2" style="fill-rule:evenodd;clip-rule:evenodd;" width="12.5" height="12.5"/>
	<polygon style="fill-rule:evenodd;clip-rule:evenodd;fill:#2591CF;" points="371.7,88.4 357.9,88.4 379,60.5 392.5,60.5 	"/>
	<polygon style="fill-rule:evenodd;clip-rule:evenodd;" points="319.3,138.5 347.1,99 320.1,60.5 333.4,60.5 388.4,138.5 
		374.9,138.5 354,108.8 333.1,138.5 	"/>
	<path style="fill-rule:evenodd;clip-rule:evenodd;" d="M305.8,91.4c-0.4-3.3-1-6-1.7-8.3c-0.7-2.3-2-5.1-3.7-8.4
		c-1.7-3.3-3.7-5.9-6-8c-2.3-2-5.3-3.8-9.2-5.3c-3.9-1.5-8.2-2.2-12.9-2.2h0c-22.8,0-34.2,13.4-34.2,40.2c0,0.2,0,0.4,0,0.6
		c0,0.2,0,0.4,0,0.5c0,7.7,1,14.3,3.1,19.7c2.1,5.4,5,9.5,8.6,12.2c3.7,2.7,7.4,4.6,11.2,5.7c3.4,1,7.1,1.5,11.2,1.6
		c0.4,0,0.9,0,1.4,0c0.2,0,0.3,0,0.5,0c10.7,0,19.8-1.8,27.3-5.4v-11.6c-6.5,3.9-15.4,5.8-26.7,5.8c-0.8,0-1.6,0-2.4-0.1
		c-6.8-0.3-12-2.1-15.7-5.3c-4.1-3.5-6.5-9.2-7.2-17h22.8h33.9l0.3-5.5v-3.4C306.4,96.5,306.2,94.5,305.8,91.4z M272.3,96.2h-22.8
		c0.5-9.6,2.5-16.4,6-20.4c3.5-4,9.1-6,16.8-6h0c5,0,9.2,1.1,12.6,3.4c3.4,2.3,5.7,5.2,7,8.6c1.3,3.4,2.2,6.2,2.6,8.4
		c0.4,2.2,0.7,4.2,0.7,6H272.3z"/>
	<path style="fill-rule:evenodd;clip-rule:evenodd;" d="M150.3,138.5V66.8c10.2-5.1,21.3-7.6,33.1-7.6c9.8,0,17.4,2.5,22.9,7.5
		c5.4,5,8.1,12,8.1,21.1v50.8H203V87.7c0-2.2-0.2-4.1-0.7-5.8c-0.5-1.7-1.4-3.5-2.7-5.5c-1.3-1.9-3.5-3.4-6.4-4.5
		c-2.9-1-6.7-1.6-11.1-1.6c-6.6,0-13.4,1-20.5,3.1v65H150.3z"/>
	<rect x="111.6" y="60.5" style="fill-rule:evenodd;clip-rule:evenodd;" width="11.3" height="78"/>
	<rect x="111" y="34.2" style="fill-rule:evenodd;clip-rule:evenodd;" width="12.5" height="12.5"/>
	<polygon style="fill-rule:evenodd;clip-rule:evenodd;" points="26,138.5 26,34.2 90,34.2 90,44.8 37.3,44.8 37.3,80.9 83.6,80.9 
		83.6,91.8 37.3,91.8 37.3,138.5 	"/>
</g>
</svg>
