<?xml version="1.0" encoding="utf-8"?>
<!-- Generator: Adobe Illustrator 23.0.2, SVG Export Plug-In . SVG Version: 6.00 Build 0)  -->
<svg version="1.1" id="Layer_1" xmlns="http://www.w3.org/2000/svg" xmlns:xlink="http://www.w3.org/1999/xlink" x="0px" y="0px"
	 viewBox="0 0 537 162" style="enable-background:new 0 0 537 162;" xml:space="preserve">
<g>
	<path style="fill-rule:evenodd;clip-rule:evenodd;fill:#FFFFFF;" d="M510.7,72.9c-2.2-5.6-5.2-9.7-8.9-12.5
		c-3.8-2.7-7.6-4.7-11.6-5.8c-3.9-1.1-8.2-1.7-12.9-1.7h-0.1c-4.7,0-9,0.6-12.9,1.7c-3.9,1.1-7.7,3.1-11.5,5.8
		c-3.8,2.8-6.8,6.9-8.9,12.5c-2.2,5.6-3.3,12.3-3.3,20.3c0,7.9,1.1,14.7,3.3,20.3c2.2,5.6,5.2,9.7,8.9,12.5
		c3.8,2.7,7.6,4.7,11.5,5.8c3.9,1.1,8.2,1.7,12.9,1.7h0.1c4.7,0,9-0.6,12.9-1.7c4-1.1,7.8-3.1,11.6-5.8c3.8-2.8,6.8-6.9,8.9-12.5
		c2.2-5.6,3.3-12.3,3.3-20.3C514,85.3,512.9,78.5,510.7,72.9z M496.6,116.1c-4,4.7-10.5,7.1-19.3,7.1h0c-8.9,0-15.3-2.4-19.3-7.2
		c-4-4.8-6-12.4-6-22.8c0-10.4,2-18,6-22.8c4-4.8,10.5-7.2,19.3-7.2h0c8.8,0,15.3,2.4,19.3,7.1c4,4.7,6.1,12.4,6.1,22.9
		S500.6,111.4,496.6,116.1z"/>
	<rect x="407.1" y="54.3" style="fill-rule:evenodd;clip-rule:evenodd;fill:#FFFFFF;" width="11.3" height="78"/>
	<rect x="406.5" y="28" style="fill-rule:evenodd;clip-rule:evenodd;fill:#FFFFFF;" width="12.5" height="12.5"/>
	<polygon style="fill-rule:evenodd;clip-rule:evenodd;fill:#FFFFFF;" points="369.7,82.2 355.9,82.2 377,54.3 390.5,54.3 	"/>
	<polygon style="fill-rule:evenodd;clip-rule:evenodd;fill:#FFFFFF;" points="317.3,132.3 345.1,92.7 318.1,54.3 331.4,54.3 
		386.4,132.3 372.9,132.3 352,102.6 331.1,132.3 	"/>
	<path style="fill-rule:evenodd;clip-rule:evenodd;fill:#FFFFFF;" d="M303.8,85.1c-0.4-3.3-1-6-1.7-8.3c-0.7-2.3-2-5.1-3.7-8.4
		c-1.7-3.3-3.7-5.9-6-8c-2.3-2-5.3-3.8-9.2-5.3c-3.9-1.5-8.2-2.2-12.9-2.2h0c-22.8,0-34.2,13.4-34.2,40.2c0,0.2,0,0.4,0,0.6
		c0,0.2,0,0.4,0,0.5c0,7.7,1,14.3,3.1,19.7c2.1,5.4,5,9.5,8.6,12.2c3.7,2.7,7.4,4.6,11.2,5.7c3.4,1,7.1,1.5,11.2,1.6
		c0.4,0,0.9,0,1.4,0c0.2,0,0.3,0,0.5,0c10.7,0,19.8-1.8,27.3-5.4v-11.6c-6.5,3.9-15.4,5.8-26.7,5.8c-0.8,0-1.6,0-2.4-0.1
		c-6.8-0.3-12-2.1-15.7-5.3c-4.1-3.5-6.5-9.2-7.2-17h22.8h33.9l0.3-5.5v-3.4C304.4,90.3,304.2,88.3,303.8,85.1z M270.3,89.9h-22.8
		c0.5-9.6,2.5-16.4,6-20.4c3.5-4,9.1-6,16.8-6h0c5,0,9.2,1.1,12.6,3.4c3.4,2.3,5.7,5.2,7,8.6c1.3,3.4,2.2,6.2,2.6,8.4
		c0.4,2.2,0.7,4.2,0.7,6H270.3z"/>
	<path style="fill-rule:evenodd;clip-rule:evenodd;fill:#FFFFFF;" d="M148.3,132.3V60.5c10.2-5.1,21.3-7.6,33.1-7.6
		c9.8,0,17.4,2.5,22.9,7.5c5.4,5,8.1,12,8.1,21.1v50.8H201V81.5c0-2.2-0.2-4.1-0.7-5.8c-0.5-1.7-1.4-3.5-2.7-5.5
		c-1.3-1.9-3.5-3.4-6.4-4.5c-2.9-1-6.7-1.6-11.1-1.6c-6.6,0-13.4,1-20.5,3.1v65H148.3z"/>
	<rect x="109.6" y="54.3" style="fill-rule:evenodd;clip-rule:evenodd;fill:#FFFFFF;" width="11.3" height="78"/>
	<rect x="109" y="28" style="fill-rule:evenodd;clip-rule:evenodd;fill:#FFFFFF;" width="12.5" height="12.5"/>
	<polygon style="fill-rule:evenodd;clip-rule:evenodd;fill:#FFFFFF;" points="24,132.3 24,28 88,28 88,38.6 35.3,38.6 35.3,74.6 
		81.6,74.6 81.6,85.6 35.3,85.6 35.3,132.3 	"/>
</g>
</svg>
